<svg id="Artwork" xmlns="http://www.w3.org/2000/svg" viewBox="0 0 253.95 124.64"><defs><style>.cls-1{fill:#6c6e70;}.cls-2{fill:none;}</style></defs><title>Intuit_2016_RGB</title><g id="Logo_Clearspace" data-name="Logo &amp; Clearspace"><g id="Logo"><path id="_" data-name="®" class="cls-1" d="M485.43,328.4a0.94,0.94,0,0,0-1.11-.88h-1v3h0.53v-1.25h0.39l0.7,1.25h0.65l-0.81-1.31A0.79,0.79,0,0,0,485.43,328.4Zm-1.62.43V328h0.49a0.48,0.48,0,0,1,.59.41,0.53,0.53,0,0,1-.65.44h-0.43Zm0.5-2.45A2.64,2.64,0,1,0,487,329,2.65,2.65,0,0,0,484.31,326.38Zm0,4.89a2.24,2.24,0,1,1,2.24-2.24A2.25,2.25,0,0,1,484.31,331.27Z" transform="translate(-269.02 -243.68)"/><path id="Intuit" class="cls-1" d="M305,295.27h9v36h-9v-36Zm38.09-1.05A12.26,12.26,0,0,0,331.94,301h-0.15v-5.77h-8.55v36h9v-19.8c0-4.8,2.7-9.75,8.4-9.75s6.75,5.33,6.75,9.6v20h9v-22.5C356.39,301.42,352.49,294.22,343.12,294.22Zm77.46,20.85c0,4.8-2.7,9.75-8.4,9.75s-6.75-5.32-6.75-9.6v-20h-9v22.5c0,7.35,3.9,14.55,13.28,14.55a12.25,12.25,0,0,0,11.17-6.83H421v5.78h8.55v-36h-9v19.8Zm18.21,16.2h9v-36h-9v36Zm-77.81-28h10.09v28h9v-28h10.09v-8H361v8Zm14.59-12.67a5.44,5.44,0,1,0-5.44-5.44A5.44,5.44,0,0,0,375.57,290.56Zm78.53,4.69v8h10.09v28h9v-28h10.09v-8H454.1Zm14.59-4.69a5.44,5.44,0,1,0-5.44-5.44A5.44,5.44,0,0,0,468.69,290.56Z" transform="translate(-269.02 -243.68)"/></g><rect id="Clearspace" class="cls-2" width="253.95" height="124.64"/></g></svg>